<?xml version="1.0" encoding="UTF-8"?>
<svg xmlns="http://www.w3.org/2000/svg" id="Layer_1" data-name="Layer 1" viewBox="0 0 863.46 246.98">
  <defs>
    
  </defs>
  <g>
    <path class="cls-3" d="m328.09,167.62v26.41h-111.84V0h31.46v167.62h80.38Z"></path>
    <path class="cls-3" d="m404.57,0c12.64,0,23.59,1.48,32.87,4.45,9.28,2.97,16.95,7.12,22.99,12.47,6.05,5.34,10.55,11.77,13.51,19.27,2.95,7.5,4.43,15.79,4.43,24.86s-1.57,17.72-4.7,25.4c-3.14,7.68-7.8,14.29-13.98,19.81-6.18,5.53-13.87,9.84-23.05,12.93-9.19,3.1-19.87,4.65-32.07,4.65h-28.76v70.2h-31.46V0h60.22Zm0,98.9c6.99,0,13.15-.9,18.49-2.69,5.33-1.8,9.76-4.33,13.3-7.61,3.54-3.28,6.21-7.25,8.01-11.92,1.79-4.67,2.69-9.88,2.69-15.63s-.88-10.74-2.63-15.23c-1.74-4.49-4.36-8.31-7.86-11.45-3.5-3.14-7.91-5.55-13.24-7.21-5.33-1.66-11.58-2.5-18.76-2.5h-28.76v74.25h28.76Z"></path>
    <path class="cls-3" d="m524.74,194.04h-31.59V0h31.59v194.04Z"></path>
    <path class="cls-3" d="m718.02,0v194.04h-15.99c-2.42,0-4.48-.43-6.18-1.28-1.71-.85-3.32-2.27-4.84-4.24l-106.32-136.9c.27,2.61.46,5.19.6,7.75.14,2.56.21,4.92.21,7.08v127.6h-27.7V0h16.4c1.34,0,2.48.06,3.43.2.94.13,1.81.38,2.62.74.81.36,1.57.9,2.28,1.62s1.48,1.61,2.28,2.69l106.46,137.04c-.27-2.78-.47-5.52-.61-8.22-.13-2.69-.2-5.21-.2-7.55V0h27.55Z"></path>
    <path class="cls-3" d="m863.46,168.57l-.13,25.47h-120.71V0h120.71v25.47h-89.12v58.48h71.24v24.66h-71.24v59.96h89.25Z"></path>
    <polygon class="cls-3" points="157.93 0 1.2 194.04 41.39 194.04 151.81 56.72 151.81 141.05 104.92 141.05 104.92 171.96 151.81 171.96 151.81 194.04 182.63 194.04 182.63 0 157.93 0"></polygon>
  </g>
  <g>
    <path class="cls-3" d="m408.81,213.29l7.66-.1,8.51,22.94,8.66-22.94,7.56.1,3.73,33.43-7.4.25-1.81-20.73v-1.91h-.1l-7.66,20.83h-6.1l-7.35-20.58h-.15l-.1,2.46-2.07,19.93-7.25-.25,3.88-33.43Z"></path>
    <path class="cls-3" d="m451.68,213.34h7.4v33.48h-7.4v-33.48Z"></path>
  </g>
  <g>
    <line class="cls-1" y1="234.44" x2="366.27" y2="234.44"></line>
    <line class="cls-2" y1="225.73" x2="366.27" y2="225.73"></line>
  </g>
  <g>
    <line class="cls-1" x1="496.36" y1="234.44" x2="862.63" y2="234.44"></line>
    <line class="cls-2" x1="496.36" y1="225.73" x2="862.63" y2="225.73"></line>
  </g>
</svg>